<svg xmlns="http://www.w3.org/2000/svg" width="512" height="512" viewBox="0 0 512 512" role="img" aria-labelledby="title desc">
  <title id="title">FarmTrack logo variant 01 - Growth Ledger</title>
  <desc id="desc">A compact app icon with ledger lines, rising bars, and a small sprout.</desc>
  <defs>
    <linearGradient id="bg" x1="80" y1="40" x2="430" y2="470" gradientUnits="userSpaceOnUse">
      <stop offset="0" stop-color="#2a2424"/>
      <stop offset="1" stop-color="#151312"/>
    </linearGradient>
    <linearGradient id="bars" x1="140" y1="320" x2="370" y2="140" gradientUnits="userSpaceOnUse">
      <stop offset="0" stop-color="#56b6f7"/>
      <stop offset="1" stop-color="#63e6a5"/>
    </linearGradient>
    <filter id="softShadow" x="-20%" y="-20%" width="140%" height="140%">
      <feDropShadow dx="0" dy="14" stdDeviation="18" flood-color="#000000" flood-opacity="0.35"/>
    </filter>
  </defs>
  <rect width="512" height="512" rx="72" fill="#201d1d"/>
  <rect x="52" y="52" width="408" height="408" rx="46" fill="url(#bg)" stroke="#3a3131" stroke-width="4" filter="url(#softShadow)"/>
  <g stroke="#4b4141" stroke-width="4" stroke-linecap="round">
    <path d="M126 168h260"/>
    <path d="M126 238h260"/>
    <path d="M126 308h260"/>
    <path d="M126 378h260"/>
  </g>
  <g fill="url(#bars)">
    <rect x="142" y="284" width="56" height="94" rx="10"/>
    <rect x="228" y="230" width="56" height="148" rx="10"/>
    <rect x="314" y="178" width="56" height="200" rx="10"/>
  </g>
  <path d="M173 247c18-31 43-47 75-47 39 0 60 28 100 28" fill="none" stroke="#f2c94c" stroke-width="10" stroke-linecap="round" stroke-linejoin="round"/>
  <path d="M250 184c-3-23 8-44 32-60 4 25-8 45-32 60z" fill="#63e6a5"/>
  <path d="M250 184c-23-3-39-18-47-44 25 2 41 17 47 44z" fill="#56b6f7"/>
</svg>
