<svg xmlns="http://www.w3.org/2000/svg" width="512" height="512" viewBox="0 0 512 512" role="img" aria-labelledby="title desc">
  <title id="title">FarmTrack field concept 04 - Contour Grid</title>
  <desc id="desc">A polished map-like mark with contour lines and a tracked endpoint.</desc>
  <defs>
    <linearGradient id="bg" x1="84" y1="60" x2="430" y2="452" gradientUnits="userSpaceOnUse">
      <stop offset="0" stop-color="#262120"/>
      <stop offset="1" stop-color="#141211"/>
    </linearGradient>
    <linearGradient id="track" x1="150" y1="332" x2="362" y2="160" gradientUnits="userSpaceOnUse">
      <stop offset="0" stop-color="#58a6ff"/>
      <stop offset="1" stop-color="#72e0bd"/>
    </linearGradient>
  </defs>
  <rect width="512" height="512" rx="92" fill="#201d1d"/>
  <rect x="70" y="70" width="372" height="372" rx="62" fill="url(#bg)"/>
  <g fill="none" stroke="#3b3331" stroke-width="8" stroke-linecap="round">
    <path d="M142 168c40-34 102-32 138 4 22 22 55 22 90 2"/>
    <path d="M130 220c54-34 120-28 166 16 24 22 58 26 94 4"/>
    <path d="M130 278c46-28 100-26 142 10 40 34 76 36 112 6"/>
    <path d="M150 340c42-18 82-10 120 18 34 24 70 22 102-2"/>
  </g>
  <path d="M146 338c58-4 73-80 112-90 36-9 60 38 106-70" fill="none" stroke="url(#track)" stroke-width="22" stroke-linecap="round" stroke-linejoin="round"/>
  <circle cx="146" cy="338" r="16" fill="#58a6ff"/>
  <circle cx="258" cy="248" r="16" fill="#f5efe7"/>
  <circle cx="364" cy="178" r="18" fill="#72e0bd"/>
  <rect x="126" y="126" width="260" height="260" rx="34" fill="none" stroke="#2f2827" stroke-width="6"/>
</svg>
